<svg width="41" height="40" viewBox="0 0 41 40" fill="none" xmlns="http://www.w3.org/2000/svg">
<path fill-rule="evenodd" clip-rule="evenodd" d="M20.3088 39C31.2687 39 40.1536 30.4934 40.1536 20C40.1536 9.50659 31.2687 1 20.3088 1C9.3488 1 0.463989 9.50659 0.463989 20C0.463989 30.4934 9.3488 39 20.3088 39Z" fill="#B0C6A1"/>
<mask id="mask0_0_327" style="mask-type:alpha" maskUnits="userSpaceOnUse" x="0" y="1" width="41" height="38">
<path fill-rule="evenodd" clip-rule="evenodd" d="M20.3088 39C31.2687 39 40.1536 30.4934 40.1536 20C40.1536 9.50659 31.2687 1 20.3088 1C9.3488 1 0.463989 9.50659 0.463989 20C0.463989 30.4934 9.3488 39 20.3088 39Z" fill="white"/>
</mask>
<g mask="url(#mask0_0_327)">
<path fill-rule="evenodd" clip-rule="evenodd" d="M14.1775 11.0103C13.1053 12.9564 10.6385 13.6732 8.48062 14.4307C6.32305 15.1879 3.95106 16.5494 3.78572 18.7441C3.68212 20.1241 4.52207 21.4577 4.37902 22.8348C4.08387 25.6774 0.207546 26.6332 -1.58952 28.9135C-2.88273 30.5547 -2.97278 32.899 -2.08223 34.7698C-1.19168 36.6406 0.565634 38.0512 2.53497 38.871C6.59953 40.5618 11.5375 39.7905 15.1494 37.332C18.761 34.8739 21.0848 30.9062 21.9314 26.7414C22.7779 22.5768 22.2358 18.2317 20.9218 14.1795C20.4337 12.6744 19.7452 11.0882 18.3267 10.2883C16.9085 9.48841 14.6235 10.0432 14.3651 11.5997L14.1775 11.0103" fill="#0A0F21"/>
<path fill-rule="evenodd" clip-rule="evenodd" d="M13.2421 14.9252C13.2421 9.44343 17.4961 5 22.7436 5C27.9911 5 32.2448 9.44343 32.2448 14.9252C32.2448 20.4067 27.9911 24.8501 22.7436 24.8501C17.4961 24.8501 13.2421 20.4067 13.2421 14.9252" fill="#0A0F21"/>
<path fill-rule="evenodd" clip-rule="evenodd" d="M15.8692 13.1187C15.8692 13.1187 13.8242 11.57 13.8504 11.226L13.2421 11.4601L15.1084 13.6815L15.8692 13.1187" fill="#FF05DB"/>
<path fill-rule="evenodd" clip-rule="evenodd" d="M11.0155 40.8855C11.0155 40.8855 18.3278 44.4975 22.3379 44.4094C26.4608 44.3188 35.4146 40.3493 35.4146 40.3493C35.4146 40.3493 33.6615 31.636 24.1395 33.5634C24.1395 33.5634 15.2508 31.4387 11.0155 40.8855Z" fill="#57C6FF"/>
<path fill-rule="evenodd" clip-rule="evenodd" d="M27.9671 23.9355L19.678 25.2823L19.6015 34.9771C19.6015 34.9771 20.0774 37.4883 24.3633 37.5587C28.4086 37.625 28.6781 34.8615 28.6781 34.8615L27.9671 23.9355L15.4711 32.7283" fill="#FBDED4"/>
<path fill-rule="evenodd" clip-rule="evenodd" d="M19.6347 30.7915V30.7915L19.6784 25.2823L19.6347 30.7915" fill="#0A0F21"/>
<path fill-rule="evenodd" clip-rule="evenodd" d="M20.0596 30.8039C19.7895 30.8039 19.6359 30.7918 19.6344 30.7915L19.6781 25.2823L27.9671 23.9355L28.1734 27.1081C25.4674 30.5132 21.3773 30.8039 20.0596 30.8039" fill="#F6D3C8"/>
<path fill-rule="evenodd" clip-rule="evenodd" d="M33.7034 19.501C33.7034 20.272 32.7237 21.3637 31.5992 21.05C30.8261 20.8343 29.8358 20.272 29.8358 19.501C29.8358 18.7296 30.9643 17.9546 31.7696 17.9546C33.0691 17.9546 33.7034 18.7296 33.7034 19.501" fill="#FBDED4"/>
<path fill-rule="evenodd" clip-rule="evenodd" d="M32.2449 20.0728C32.2464 19.9044 32.2753 19.7386 32.3329 19.5794C32.3944 19.4208 32.4586 19.2599 32.6427 19.1273C32.6843 19.0958 32.7597 19.0719 32.8257 19.0719C32.8606 19.0751 32.8995 19.0777 32.9297 19.0886C32.9577 19.1022 32.986 19.1166 33.0119 19.1339C33.0611 19.1682 33.0861 19.2097 33.1216 19.2475C33.1681 19.3121 33.1675 19.3669 33.1702 19.4136C33.1714 19.5987 33.1126 19.7541 33.0382 19.9072C33.018 19.7426 33.0077 19.5739 32.9773 19.4361C32.9682 19.4041 32.9544 19.375 32.9483 19.3744L32.8781 19.3196C32.8335 19.2928 32.8248 19.3026 32.778 19.3271C32.6843 19.3845 32.5924 19.5281 32.5089 19.6572C32.4266 19.7922 32.3386 19.9309 32.2449 20.0728" fill="#EEA08E"/>
<path fill-rule="evenodd" clip-rule="evenodd" d="M14.4591 19.501C14.4591 20.272 15.4391 21.3637 16.5634 21.05C17.3368 20.8343 18.3267 20.272 18.3267 19.501C18.3267 18.7296 17.1982 17.9546 16.3929 17.9546C15.0934 17.9546 14.4591 18.7296 14.4591 19.501" fill="#FBDED4"/>
<path fill-rule="evenodd" clip-rule="evenodd" d="M15.9184 20.0728C15.8249 19.9309 15.7369 19.7922 15.6546 19.6572C15.5708 19.5281 15.4789 19.3845 15.3849 19.3271C15.3388 19.3026 15.33 19.2928 15.2854 19.3196L15.2149 19.3744C15.2089 19.375 15.195 19.4041 15.186 19.4361C15.1555 19.5739 15.1453 19.7426 15.1254 19.9072C15.0506 19.7541 14.9919 19.5987 14.9931 19.4136C14.9961 19.3669 14.9955 19.3121 15.0416 19.2475C15.0772 19.2097 15.1022 19.1682 15.1513 19.1339C15.1772 19.1166 15.2055 19.1022 15.2336 19.0886C15.264 19.0777 15.3026 19.0751 15.3376 19.0719C15.4036 19.0719 15.4789 19.0958 15.5208 19.1273C15.705 19.2599 15.7689 19.4208 15.8304 19.5794C15.8882 19.7386 15.9169 19.9044 15.9184 20.0728" fill="#EEA08E"/>
<path fill-rule="evenodd" clip-rule="evenodd" d="M31.7642 17.4923C31.9078 22.8772 29.2455 28.0242 24.6217 28.1375C19.9976 28.2506 16.6582 23.654 16.5145 18.2691C16.3709 12.8843 19.4768 8.75053 24.1007 8.63721C28.7248 8.52389 31.6202 12.1075 31.7642 17.4923" fill="#FBDED4"/>
<path fill-rule="evenodd" clip-rule="evenodd" d="M21.4917 17.7657C21.4842 18.0638 21.2907 18.3012 21.0601 18.296C20.8292 18.2905 20.6481 18.0445 20.6556 17.7464C20.6635 17.4482 20.8567 17.2109 21.0875 17.2161C21.3184 17.2216 21.4992 17.4678 21.4917 17.7657" fill="#172133"/>
<path fill-rule="evenodd" clip-rule="evenodd" d="M27.5076 17.7657C27.5 18.0638 27.3068 18.3012 27.0757 18.296C26.8451 18.2905 26.664 18.0445 26.6715 17.7464C26.679 17.4482 26.8725 17.2109 27.1034 17.2161C27.334 17.2216 27.5151 17.4678 27.5076 17.7657" fill="#172133"/>
<path fill-rule="evenodd" clip-rule="evenodd" d="M22.3379 20.586C22.6312 20.9067 22.9306 21.2005 23.2577 21.4297C23.5856 21.6549 23.9416 21.8066 24.3015 21.7951C24.6623 21.7985 25.0249 21.6425 25.3713 21.4346C25.717 21.2215 26.0407 20.9502 26.3886 20.6806C26.2103 21.073 25.9573 21.4355 25.6167 21.7365C25.4465 21.8879 25.2508 22.0171 25.0318 22.1212C24.8099 22.2178 24.5617 22.2789 24.3063 22.2852C24.0512 22.2838 23.7964 22.2279 23.5736 22.1246C23.3528 22.0174 23.1553 21.8807 22.995 21.7163C22.6707 21.3928 22.4454 21.0035 22.3379 20.586" fill="#292929"/>
<path fill-rule="evenodd" clip-rule="evenodd" d="M23.8239 19.5733C23.9404 19.4035 24.0814 19.2706 24.2314 19.1509C24.3795 19.0292 24.5398 18.9254 24.7078 18.8329L24.6982 19.2674C24.5527 19.1619 24.4467 19.0367 24.3645 18.907C24.2838 18.7758 24.222 18.6437 24.1796 18.5065C24.0913 18.2348 24.0552 17.9554 24.0892 17.6743C24.2506 17.909 24.3904 18.1354 24.5383 18.3435C24.6166 18.4442 24.684 18.5483 24.7674 18.6307C24.8476 18.7149 24.9283 18.7893 25.0087 18.8389L25.3421 19.0451L24.999 19.2735C24.8403 19.3793 24.6738 19.4736 24.4955 19.55C24.3184 19.6287 24.1326 19.6939 23.9227 19.7221C23.8673 19.7299 23.8161 19.693 23.8082 19.6399L23.8239 19.5733" fill="#D1746F"/>
<path fill-rule="evenodd" clip-rule="evenodd" d="M28.1733 7.50199C26.5006 6.19953 23.4486 6.75171 23.4486 6.75171C20.6667 7.07379 18.133 8.6153 16.866 11.0083C14.9165 14.6896 16.5762 18.567 16.5762 18.567C21.0414 17.0186 23.8428 12.2822 25.0264 9.84769C25.5534 12.2934 27.1617 15.61 31.7695 17.9543C31.7695 17.9543 33.0787 11.3214 28.1733 7.50199" fill="#0A0F21"/>
</g>
</svg>
